{
	"asset":{
		"generator":"Khronos glTF Blender I/O v4.0.44",
		"version":"2.0"
	},
	"scene":0,
	"scenes":[
		{
			"name":"Scene",
			"nodes":[
				0,
				3,
				4,
				7
			]
		}
	],
	"nodes":[
		{
			"name":"world",
			"translation":[
				0,
				0.3267139196395874,
				0
			]
		},
		{
			"mesh":0,
			"name":"geometry_0",
			"translation":[
				0,
				-0.06297075748443604,
				0
			]
		},
		{
			"mesh":1,
			"name":"geometry_0.001"
		},
		{
			"children":[
				1,
				2
			],
			"name":"world.001",
			"translation":[
				0,
				0.3267139196395874,
				0
			]
		},
		{
			"mesh":2,
			"name":"Cylinder.012",
			"scale":[
				5.902200222015381,
				5.902200222015381,
				5.902200222015381
			],
			"translation":[
				0.0014882663963362575,
				-5.549124717712402,
				0.047386009246110916
			]
		},
		{
			"name":"Onigiri"
		},
		{
			"children":[
				5
			],
			"name":"Root"
		},
		{
			"children":[
				6
			],
			"name":"Sketchfab_model",
			"rotation":[
				-0.7071069478988647,
				0,
				0,
				0.7071066498756409
			],
			"scale":[
				0.4015253782272339,
				0.40152543783187866,
				0.40152543783187866
			],
			"translation":[
				0,
				-0.14368730783462524,
				0
			]
		}
	],
	"materials":[
		{
			"name":"Material_0.001",
			"pbrMetallicRoughness":{
				"baseColorTexture":{
					"index":0
				}
			}
		},
		{
			"doubleSided":true,
			"name":"Material.001",
			"pbrMetallicRoughness":{
				"baseColorFactor":[
					0.2461996078491211,
					0.194618359208107,
					0.1328708678483963,
					1
				],
				"metallicFactor":0,
				"roughnessFactor":0.5
			}
		},
		{
			"doubleSided":true,
			"name":"DirtyPlate_Texture",
			"normalTexture":{
				"index":1,
				"texCoord":1
			},
			"pbrMetallicRoughness":{
				"baseColorTexture":{
					"index":2,
					"texCoord":1
				},
				"metallicFactor":0,
				"metallicRoughnessTexture":{
					"index":3,
					"texCoord":1
				}
			}
		}
	],
	"meshes":[
		{
			"name":"geometry_0.001",
			"primitives":[
				{
					"attributes":{
						"POSITION":0,
						"NORMAL":1,
						"TEXCOORD_0":2
					},
					"indices":3,
					"material":0
				}
			]
		},
		{
			"name":"geometry_0.003",
			"primitives":[
				{
					"attributes":{
						"POSITION":4,
						"NORMAL":5,
						"TEXCOORD_0":6
					},
					"indices":7,
					"material":1
				}
			]
		},
		{
			"name":"Cylinder.002",
			"primitives":[
				{
					"attributes":{
						"POSITION":8,
						"NORMAL":9,
						"TEXCOORD_0":10,
						"TEXCOORD_1":11
					},
					"indices":12,
					"material":2
				}
			]
		}
	],
	"textures":[
		{
			"sampler":0,
			"source":0
		},
		{
			"sampler":0,
			"source":1
		},
		{
			"sampler":0,
			"source":2
		},
		{
			"sampler":0,
			"source":3
		}
	],
	"images":[
		{
			"mimeType":"image/png",
			"name":"Image_0",
			"uri":"Image_0.png"
		},
		{
			"mimeType":"image/png",
			"name":"dirty_plate_normal",
			"uri":"dirty_plate_normal.png"
		},
		{
			"mimeType":"image/png",
			"name":"dirty_plate_color",
			"uri":"dirty_plate_color.png"
		},
		{
			"mimeType":"image/png",
			"name":"dirty_plate_roughness",
			"uri":"dirty_plate_roughness.png"
		}
	],
	"accessors":[
		{
			"bufferView":0,
			"componentType":5126,
			"count":124873,
			"max":[
				0.4995836019515991,
				0.2596966028213501,
				0.47975999116897583
			],
			"min":[
				-0.4999709725379944,
				-0.2489851862192154,
				-0.47482243180274963
			],
			"type":"VEC3"
		},
		{
			"bufferView":1,
			"componentType":5126,
			"count":124873,
			"type":"VEC3"
		},
		{
			"bufferView":2,
			"componentType":5126,
			"count":124873,
			"type":"VEC2"
		},
		{
			"bufferView":3,
			"componentType":5125,
			"count":124899,
			"type":"SCALAR"
		},
		{
			"bufferView":4,
			"componentType":5126,
			"count":2656,
			"max":[
				-0.1942669004201889,
				-0.006021227687597275,
				0.22952602803707123
			],
			"min":[
				-0.4474024176597595,
				-0.2400747835636139,
				0.016260219737887383
			],
			"type":"VEC3"
		},
		{
			"bufferView":5,
			"componentType":5126,
			"count":2656,
			"type":"VEC3"
		},
		{
			"bufferView":6,
			"componentType":5126,
			"count":2656,
			"type":"VEC2"
		},
		{
			"bufferView":7,
			"componentType":5123,
			"count":2658,
			"type":"SCALAR"
		},
		{
			"bufferView":8,
			"componentType":5126,
			"count":402,
			"max":[
				0.1312577724456787,
				0.973469614982605,
				0.13050474226474762
			],
			"min":[
				-0.1312578022480011,
				0.9438623189926147,
				-0.13201086223125458
			],
			"type":"VEC3"
		},
		{
			"bufferView":9,
			"componentType":5126,
			"count":402,
			"type":"VEC3"
		},
		{
			"bufferView":10,
			"componentType":5126,
			"count":402,
			"type":"VEC2"
		},
		{
			"bufferView":11,
			"componentType":5126,
			"count":402,
			"type":"VEC2"
		},
		{
			"bufferView":12,
			"componentType":5123,
			"count":1524,
			"type":"SCALAR"
		}
	],
	"bufferViews":[
		{
			"buffer":0,
			"byteLength":1498476,
			"byteOffset":0,
			"target":34962
		},
		{
			"buffer":0,
			"byteLength":1498476,
			"byteOffset":1498476,
			"target":34962
		},
		{
			"buffer":0,
			"byteLength":998984,
			"byteOffset":2996952,
			"target":34962
		},
		{
			"buffer":0,
			"byteLength":499596,
			"byteOffset":3995936,
			"target":34963
		},
		{
			"buffer":0,
			"byteLength":31872,
			"byteOffset":4495532,
			"target":34962
		},
		{
			"buffer":0,
			"byteLength":31872,
			"byteOffset":4527404,
			"target":34962
		},
		{
			"buffer":0,
			"byteLength":21248,
			"byteOffset":4559276,
			"target":34962
		},
		{
			"buffer":0,
			"byteLength":5316,
			"byteOffset":4580524,
			"target":34963
		},
		{
			"buffer":0,
			"byteLength":4824,
			"byteOffset":4585840,
			"target":34962
		},
		{
			"buffer":0,
			"byteLength":4824,
			"byteOffset":4590664,
			"target":34962
		},
		{
			"buffer":0,
			"byteLength":3216,
			"byteOffset":4595488,
			"target":34962
		},
		{
			"buffer":0,
			"byteLength":3216,
			"byteOffset":4598704,
			"target":34962
		},
		{
			"buffer":0,
			"byteLength":3048,
			"byteOffset":4601920,
			"target":34963
		}
	],
	"samplers":[
		{
			"magFilter":9729,
			"minFilter":9987
		}
	],
	"buffers":[
		{
			"byteLength":4604968,
			"uri":"OLOS.bin"
		}
	]
}
